<svg id="Layer_1" data-name="Layer 1" xmlns="http://www.w3.org/2000/svg" viewBox="0 0 497.38 128.93"><defs><style>.cls-1{fill:#fee071;}</style></defs><path class="cls-1" d="M64.15,327.83,50.81,424.26c-.56,4,1,8,5.24,9.22,3.49,1,8.67-1.23,9.22-5.24l13.34-96.42c.56-4-1-8-5.23-9.23-3.5-1-8.68,1.23-9.23,5.24Z" transform="translate(-50.7 -304.79)"/><path class="cls-1" d="M68,334c6.91,16.75,18,30.57,28.39,45.24a137.17,137.17,0,0,1,13.25,22.07c4.31,9.47,7.56,18.81,13.64,27.38,3.42,4.83,12.27,5.05,13.71-1.79,2-9.55,1.39-19.22,1.76-28.9a225,225,0,0,1,2.66-27.3A237.21,237.21,0,0,1,157,316c1.59-3.76,1.09-8-2.69-10.26-3.13-1.88-8.69-1-10.27,2.69a252.53,252.53,0,0,0-16.82,56.42,259.55,259.55,0,0,0-3.33,29.43c-.51,9.44.55,19.3-1.4,28.6l13.71-1.8c-5.76-8.12-9-16.89-13-25.91a133.36,133.36,0,0,0-13-22.22c-9.72-13.91-21.28-27.14-27.82-43-1.54-3.73-5-6.42-9.22-5.24-3.54,1-6.8,5.45-5.24,9.23Z" transform="translate(-50.7 -304.79)"/><path class="cls-1" d="M169,377.27c-13.92.79-23.91,12.91-22.55,26.8,1.39,14.27,13.27,24.58,27.26,25.74,6.28.51,13.81-.7,18.49-5.27,4.95-4.83,5.07-11.74,3.87-18.14-2.36-12.5-11.49-22-22.91-26.83-3.77-1.58-8.22,1.7-9.23,5.24-1.23,4.31,1.52,7.66,5.24,9.22a21.73,21.73,0,0,1,11.11,11.58c.73,1.8,2.31,5.84,1.49,7.79-.72,1.71-4.73,1.57-6.41,1.5-5.85-.21-11.57-3.64-13.45-9.39-1.77-5.42.59-12.87,7.09-13.24,9.6-.55,9.66-15.55,0-15Z" transform="translate(-50.7 -304.79)"/><path class="cls-1" d="M199.44,356.78a286,286,0,0,1,4.21,61.77c-.37,9.65,14.63,9.64,15,0a304.48,304.48,0,0,0-4.75-65.76c-1.71-9.49-16.17-5.47-14.46,4Z" transform="translate(-50.7 -304.79)"/><path class="cls-1" d="M220.55,396.84c2-11,10.86-16.07,18.41-23.26,7-6.67-3.62-17.26-10.61-10.6-9.53,9.08-19.76,16-22.26,29.87-1.69,9.44,12.76,13.49,14.46,4Z" transform="translate(-50.7 -304.79)"/><path class="cls-1" d="M213.74,391.88a183.09,183.09,0,0,0,27.31,27.3c3.17,2.57,7.5,3.05,10.61,0,2.66-2.6,3.14-8.06,0-10.6a183.63,183.63,0,0,1-27.31-27.31c-2.57-3.17-7.93-2.62-10.61,0-3.14,3.08-2.53,7.48,0,10.61Z" transform="translate(-50.7 -304.79)"/><path class="cls-1" d="M265.46,374.3c-5.61,4.81-7.31,14.75-7.23,21.8.1,7.91,3.79,14.56,10.71,18.43,12.89,7.21,33.86,9.86,42.65-4.77,7.07-11.78,7.44-32.11-4.73-40.63C294.29,360.35,272.19,358.6,264,374c-4.55,8.52,8.4,16.1,12.95,7.57,3.79-7.1,15.69-4.05,21.06-.38s3.8,14.73,1.3,19.84c-3.6,7.38-15,4-20.86,1.46-3.59-1.55-5.29-3.14-5.16-7.16.09-3,.45-8.41,2.81-10.44,7.34-6.29-3.31-16.86-10.61-10.6Z" transform="translate(-50.7 -304.79)"/><path class="cls-1" d="M327.84,366.1q-3,23.55-3.81,47.28c-.28,7.84,10.08,9.66,14,3.78,4.49-6.78,7.84-14.14,11.42-21.43,3.22-6.54,7-15.86,13.25-20.16.86-.6,2.39-.7,1.46-1.33a37.84,37.84,0,0,1,.49,4.48c.54,4.11,1,8.23,1.61,12.33,1.24,8.16,3.49,16.15,8.2,23,5.43,7.92,18.43.42,12.95-7.57-5.65-8.25-6.53-18.11-7.76-27.78-.67-5.24-.87-11.13-4.88-15.09a15.12,15.12,0,0,0-14-3.54c-9.9,2.49-16.38,13.22-20.93,21.59-5,9.26-8.9,19.1-14.75,27.91l14,3.79q.86-23.73,3.81-47.28c.5-4-3.81-7.5-7.5-7.5-4.47,0-7,3.46-7.5,7.5Z" transform="translate(-50.7 -304.79)"/><path class="cls-1" d="M415.43,359.59c-17.57,1.2-20.69,19.82-20.38,34.15.17,7.44,1.47,15.15,5.32,21.63,4.55,7.65,11.05,11,19.86,11.4,7.49.35,14.69-2.31,18.5-9.1s4.59-15.62,4.74-23.37c.16-8.64-1.53-14.9-7-21.67-4.73-5.89-11-10.84-18.57-12.2-9.44-1.68-13.49,12.77-4,14.46,7.27,1.3,14.38,8.42,14.53,15.95a59.1,59.1,0,0,1-1.1,14.36c-.91,3.89-1.39,6.49-5.73,6.6s-6.65-.87-8.69-4.67a27.73,27.73,0,0,1-2.86-11.81c-.2-4.26-1.31-20.27,5.33-20.73,9.58-.65,9.65-15.66,0-15Z" transform="translate(-50.7 -304.79)"/><path class="cls-1" d="M451.79,360.92q.66,26.59,3.42,53.07c.42,4,3.15,7.5,7.5,7.5,3.73,0,7.92-3.45,7.5-7.5q-2.76-26.46-3.42-53.07c-.24-9.64-15.24-9.68-15,0Z" transform="translate(-50.7 -304.79)"/><path class="cls-1" d="M468.25,392.09c.13-3.21,4.44-7.34,6.21-9.85L483,370.17c5.57-7.91-7.43-15.42-12.95-7.57l-10.76,15.29c-3.16,4.48-5.77,8.56-6,14.2-.38,9.65,14.62,9.64,15,0Z" transform="translate(-50.7 -304.79)"/><path class="cls-1" d="M460.51,389c-.06,7.27,4.69,11.78,10.06,15.92q9.44,7.24,19.27,13.93c8,5.45,15.51-7.55,7.57-12.95q-6.69-4.55-13.2-9.35c-1.89-1.4-8.72-5.36-8.7-7.55.08-9.66-14.92-9.67-15,0Z" transform="translate(-50.7 -304.79)"/><path class="cls-1" d="M515.53,361.07c-17.08-1.5-18.75,20.27-15.48,32,3.88,13.93,13.42,25.84,28.71,26,7.06.09,12.65-.81,15.87-7.69,3.32-7.09,4.6-14.18,2.22-21.8-4.11-13.16-13.5-28.48-28.24-30.2-4-.47-7.5,3.79-7.5,7.5,0,4.45,3.46,7,7.5,7.5,3.07.36,5.36,3.92,6.89,6.22a67.64,67.64,0,0,1,6.06,10.7c1.27,3,2,6.06,1.3,9.29a19.4,19.4,0,0,1-1.18,3.22q-2.41,3.72,2.74,0c-.22-.33-4.46.25-4.85.25-7.24,0-10.63-4.33-13.5-10.64-1.08-2.37-5.3-17.83-.54-17.41,9.61.85,9.56-14.16,0-15Z" transform="translate(-50.7 -304.79)"/></svg>